<?xml version="1.0" encoding="UTF-8" standalone="no"?>
<svg
   xmlns:dc="http://purl.org/dc/elements/1.1/"
   xmlns:cc="http://creativecommons.org/ns#"
   xmlns:rdf="http://www.w3.org/1999/02/22-rdf-syntax-ns#"
   xmlns:svg="http://www.w3.org/2000/svg"
   xmlns="http://www.w3.org/2000/svg"
   viewBox="0 0 614.66669 129.33333"
   height="129.33333"
   width="614.66669"
   xml:space="preserve"
   id="svg2"
   version="1.1"><metadata
     id="metadata8"><rdf:RDF><cc:Work
         rdf:about=""><dc:format>image/svg+xml</dc:format><dc:type
           rdf:resource="http://purl.org/dc/dcmitype/StillImage" /></cc:Work></rdf:RDF></metadata><defs
     id="defs6" /><g
     transform="matrix(1.3333333,0,0,-1.3333333,0,129.33333)"
     id="g10"><g
       transform="scale(0.1)"
       id="g12"><path
         id="path14"
         style="fill:#4e4e4e;fill-opacity:1;fill-rule:evenodd;stroke:none"
         d="m 3415.2,199.609 c 2.3,-0.269 4.64,-0.629 6.99,-1.089 l 348.67,230 405.59,-267.54 -405.59,333.59 -358.52,-294.648 c 0.98,-0.231 1.92,-0.313 2.86,-0.313" /><path
         id="path16"
         style="fill:#1072ba;fill-opacity:1;fill-rule:evenodd;stroke:none"
         d="m 3214.69,798.281 h 78.2773 v 78.3203 H 3214.69 Z" /><path
         id="path18"
         style="fill:#1072ba;fill-opacity:1;fill-rule:evenodd;stroke:none"
         d="m 3214.69,648.012 h 78.2773 v 78.3164 H 3214.69 Z" /><path
         id="path20"
         style="fill:#1072ba;fill-opacity:1;fill-rule:evenodd;stroke:none"
         d="m 3214.69,498.09 h 78.2773 v 78.2813 H 3214.69 Z" /><path
         id="path22"
         style="fill:#1072ba;fill-opacity:1;fill-rule:evenodd;stroke:none"
         d="m 3214.69,348.129 h 78.2773 v 78.2813 H 3214.69 Z" /><path
         id="path24"
         style="fill:#1072ba;fill-opacity:1;fill-rule:evenodd;stroke:none"
         d="m 3351.6,798.281 h 78.3203 v 78.3203 H 3351.6 Z" /><path
         id="path26"
         style="fill:#1072ba;fill-opacity:1;fill-rule:evenodd;stroke:none"
         d="m 3351.6,648.012 h 78.3203 v 78.3164 H 3351.6 Z" /><path
         id="path28"
         style="fill:#1072ba;fill-opacity:1;fill-rule:evenodd;stroke:none"
         d="m 3351.6,498.09 h 78.3203 v 78.2813 H 3351.6 Z" /><path
         id="path30"
         style="fill:#1072ba;fill-opacity:1;fill-rule:evenodd;stroke:none"
         d="m 3351.6,348.129 h 78.3203 v 78.2813 H 3351.6 Z" /><path
         id="path32"
         style="fill:#1072ba;fill-opacity:1;fill-rule:evenodd;stroke:none"
         d="m 3488.2,498.09 h 78.3203 v 78.2813 H 3488.2 Z" /><path
         id="path34"
         style="fill:#1072ba;fill-opacity:1;fill-rule:evenodd;stroke:none"
         d="m 3488.2,348.129 h 78.3203 v 78.2813 H 3488.2 Z" /><path
         id="path36"
         style="fill:#4e4e4e;fill-opacity:1;fill-rule:evenodd;stroke:none"
         d="m 3778.98,250.82 h 65.28 c -6.56,37.032 -28.32,58.789 -65.28,65.352 V 250.82" /><path
         id="path38"
         style="fill:#4e4e4e;fill-opacity:1;fill-rule:evenodd;stroke:none"
         d="m 3762.46,251.211 v 64.961 c -36.76,-6.563 -58.4,-28.203 -64.96,-64.961 h 64.96" /><path
         id="path40"
         style="fill:#4e4e4e;fill-opacity:1;fill-rule:evenodd;stroke:none"
         d="m 3762.46,234.73 h -64.96 c 6.56,-37.031 28.2,-58.679 64.96,-65 v 65" /><path
         id="path42"
         style="fill:#4e4e4e;fill-opacity:1;fill-rule:evenodd;stroke:none"
         d="m 3778.98,234.73 v -65.351 c 36.96,6.562 58.72,28.32 65.28,65.351 h -65.28" /><path
         id="path44"
         style="fill:#1072ba;fill-opacity:1;fill-rule:evenodd;stroke:none"
         d="m 4582.03,99.1797 c -12.89,-4.918 -31.37,-10.8984 -55.47,-17.9297 -24.37,-6.8008 -53.75,-13.4805 -88.16,-20.0391 -34.38,-6.5625 -72.89,-11.6796 -115.51,-15.4296 -42.85,-3.75 -88.71,-5.1602 -137.66,-4.2227 -48.9,1.1719 -99.84,5.043 -152.77,11.6016 -13.08,2.1093 -26.33,4.0703 -39.65,5.9804 -13.36,2.0703 -26.68,4.3008 -40.04,6.6797 -26.91,5.1602 -53.94,10.9805 -81.09,17.5391 -54.34,12.8515 -108.52,28.5506 -162.62,47.0316 -55.47,18.75 -111.4,34.41 -167.81,47.07 -7.03,1.641 -14.06,3.16 -21.09,4.57 l -10.51,2.457 -10.55,1.762 c -14.06,2.578 -27.97,5.039 -41.8,7.34 -14.02,1.879 -27.96,3.91 -41.75,6.019 -13.83,1.602 -27.54,3.121 -41.1,4.532 -55,5.16 -107.69,6.91 -158.04,5.269 -14.96,-0.461 -29.73,-1.289 -44.22,-2.461 V 930.66 h 304.8 V 631.84 h 143.6 V 398.672 l 39.33,32.699 V 671.172 H 3516.64 V 970 H 3132.85 V 203.789 c -19.92,-2.109 -38.98,-4.57 -57.23,-7.379 -10.78,-1.879 -21.28,-3.711 -31.6,-5.59 -10.31,-2.109 -20.39,-4.218 -30.23,-6.332 -9.57,-2.109 -18.95,-4.328 -28.09,-6.679 -9.1,-2.34 -18,-4.688 -26.64,-7.028 -34.18,-9.801 -63.12,-19.652 -86.76,-29.492 -23.63,-9.84 -41.44,-18.008 -53.39,-24.57 -12.15,-6.559 -18.25,-9.957 -18.25,-10.199 0,0.242 6.45,2.82 19.34,7.742 12.62,4.687 31.13,10.508 55.47,17.539 24.33,7.027 53.71,13.82 88.12,20.39 34.18,6.559 72.7,11.68 115.55,15.43 42.58,3.508 88.36,4.801 137.27,3.859 49.18,-0.929 100.07,-4.761 152.77,-11.601 13.32,-1.828 26.68,-3.707 40,-5.617 13.12,-2.313 26.44,-4.653 40.04,-6.992 26.95,-4.93 53.98,-10.668 81.13,-17.231 54.3,-13.09 108.48,-28.75 162.58,-47.0273 55.23,-18.9531 111.21,-34.7734 167.85,-47.4219 7.03,-1.4101 14.02,-2.9296 21.06,-4.539 l 21.09,-4.211 c 14.02,-2.5781 27.97,-4.9296 41.76,-7.039 14.06,-2.1016 27.97,-4.211 41.79,-6.3203 13.83,-1.4102 27.5,-2.9297 41.1,-4.57034 54.76,-4.92969 107.46,-6.57032 158.01,-4.92969 50.35,1.64062 97.26,5.98047 140.82,13.00783 10.74,1.8828 21.29,3.6328 31.6,5.2812 10.27,2.0703 20.35,4.1797 30.19,6.3203 9.57,2.3086 18.95,4.5313 28.09,6.6407 9.1,2.3906 18.05,4.6914 26.68,7.039 34.18,10.0703 63.08,19.9219 86.72,29.4922 23.67,9.8399 41.44,18.0078 53.4,24.5664 12.14,6.5629 18.24,9.9609 18.24,10.1919 -0.2,0 -6.64,-2.461 -19.3,-7.3403" /><path
         id="path46"
         style="fill:#4e4e4e;fill-opacity:1;fill-rule:evenodd;stroke:none"
         d="m 4063.4,282.109 96.21,63.551 279.84,-184.371 -279.84,230 -114.49,-94.098 18.28,-15.082" /><path
         id="path48"
         style="fill:#fbb03c;fill-opacity:1;fill-rule:evenodd;stroke:none"
         d="m 4212.27,375.512 24.96,-20.352 c 3.04,21.289 4.53,42.852 4.53,64.57 -3.52,133.711 -49.61,244.879 -138.32,333.59 -88.75,88.981 -199.96,135.078 -333.6,138.36 -85.23,-0.942 -162.61,-21.289 -232.11,-61.09 v -33.36 c 62.04,29.961 129.65,45.192 202.93,45.661 132.78,-3.282 243.48,-48.832 332.19,-136.602 88.52,-87.769 135,-198.051 139.42,-330.777" /><path
         id="path50"
         style="fill:#4e4e4e;fill-opacity:1;fill-rule:nonzero;stroke:none"
         d="m 1051.99,750.23 h 34.22 l 51.72,-141.089 51.25,141.089 h 34.22 l -73.13,-180 h -29.53 z m 228.95,39.379 h -31.7227 v 25.7813 h 31.7227 z m 0,-219.379 h -31.7227 v 180 h 31.7227 z" /><path
         id="path52"
         style="fill:#4e4e4e;fill-opacity:1;fill-rule:nonzero;stroke:none"
         d="m 1332.23,570.23 v 180 h 21.4 l 5.63,-22.96 c 15.7,15.308 34.69,22.96 56.87,22.96 v -26.402 c -21.48,0 -38.86,-7.617 -52.18,-22.808 V 570.23 Z" /><path
         id="path54"
         style="fill:#4e4e4e;fill-opacity:1;fill-rule:nonzero;stroke:none"
         d="m 1603.28,750.23 v -180 h -21.87 l -5.47,22.969 c -21.8,-15.308 -43.71,-22.969 -65.78,-22.969 -41.37,0 -62.04,22.348 -62.04,67.04 v 112.96 h 31.72 V 636.801 c 0,-26.801 13.21,-40.16 39.69,-40.16 18.2,0 35.55,7.578 52.03,22.808 V 750.23 Z" /><path
         id="path56"
         style="fill:#4e4e4e;fill-opacity:1;fill-rule:nonzero;stroke:none"
         d="m 1654.57,578.828 v 27.344 c 20,-6.793 40.78,-10.152 62.34,-10.152 28.64,0 42.97,8.511 42.97,25.621 0,16.019 -9.45,24.058 -28.28,24.058 h -29.06 c -37.74,0 -56.56,17.699 -56.56,53.129 0,34.262 24.92,51.402 74.84,51.402 21.45,0 42.19,-2.89 62.19,-8.589 v -27.34 c -20,6.75 -40.74,10.148 -62.19,10.148 -29.92,0 -44.84,-8.551 -44.84,-25.621 0,-16.058 8.82,-24.058 26.56,-24.058 h 29.06 c 40,0 60,-17.739 60,-53.129 0,-34.301 -24.92,-51.411 -74.69,-51.411 -21.56,0 -42.34,2.86 -62.34,8.598 z" /><path
         id="path58"
         style="fill:#4e4e4e;fill-opacity:1;fill-rule:nonzero;stroke:none"
         d="m 2054.96,575.391 c -14.8,-3.442 -30.78,-5.161 -47.97,-5.161 -65.11,0 -97.65,31.141 -97.65,93.442 0,57.699 32.54,86.558 97.65,86.558 17.19,0 33.17,-1.71 47.97,-5.152 v -25.629 c -14.8,3.321 -29.65,5 -44.53,5 -46.25,0 -69.38,-20.269 -69.38,-60.777 0,-45.121 23.13,-67.652 69.38,-67.652 14.88,0 29.73,1.64 44.53,5 z" /><path
         id="path60"
         style="fill:#4e4e4e;fill-opacity:1;fill-rule:nonzero;stroke:none"
         d="m 2093.48,570.23 h 31.7188 V 815.39 H 2093.48 Z" /><path
         id="path62"
         style="fill:#4e4e4e;fill-opacity:1;fill-rule:nonzero;stroke:none"
         d="m 2320.7,651.172 h -121.09 c 0,-36.793 23.16,-55.152 69.53,-55.152 15.94,0 31.8,1.64 47.66,5 v -25.629 c -15.86,-3.442 -35.16,-5.161 -57.97,-5.161 -60.63,0 -90.94,30.668 -90.94,92.04 0,58.628 28.75,87.96 86.25,87.96 55,0 77.19,-33.039 66.56,-99.058 z m -121.09,26.406 h 92.19 c 1.56,31.563 -12.74,47.344 -42.82,47.344 -30.93,0 -47.42,-15.781 -49.37,-47.344 z" /><path
         id="path64"
         style="fill:#4e4e4e;fill-opacity:1;fill-rule:nonzero;stroke:none"
         d="m 2361.99,626.328 c 0,36.871 24.3,55.313 72.97,55.313 17.89,0 33.59,-1.172 47.03,-3.442 v 17.031 c 0,19.461 -16.21,29.219 -48.59,29.219 -18.56,0 -37.5,-2.808 -56.88,-8.429 v 25.621 c 19.38,5.699 38.32,8.589 56.88,8.589 53.51,0 80.31,-19.21 80.31,-57.652 V 570.23 h -16.09 l -12.82,12.661 c -15.62,-8.442 -34.02,-12.661 -55.15,-12.661 -45.12,0 -67.66,18.68 -67.66,56.098 z m 72.97,29.692 c -27.5,0 -41.25,-9.77 -41.25,-29.219 0,-20.551 11.95,-30.781 35.94,-30.781 21.95,0 39.41,4.679 52.34,14.058 v 42.5 c -12.61,2.262 -28.28,3.442 -47.03,3.442 z" /><path
         id="path66"
         style="fill:#4e4e4e;fill-opacity:1;fill-rule:nonzero;stroke:none"
         d="m 2565.35,570.23 v 180 h 21.41 l 5.62,-22.96 c 21.76,15.308 43.67,22.96 65.78,22.96 41.57,0 62.35,-22.339 62.35,-67.031 V 570.23 h -31.72 v 113.442 c 0,26.758 -13.36,40.156 -40,40.156 -18.24,0 -35.47,-7.617 -51.72,-22.808 V 570.23 Z" /><path
         id="path68"
         style="fill:#1072ba;fill-opacity:1;fill-rule:nonzero;stroke:none"
         d="m -0.0390625,239.609 v 132.813 c 0,30.387 15.6601625,45.629 47.0273625,45.629 10.3125,0 19.6914,-1.571 28.1328,-4.692 V 395.23 c -7.9297,3.211 -17.3125,4.848 -28.1328,4.848 -16.5586,0 -24.8399,-6.957 -24.8399,-20.777 V 366.172 H 59.9609 V 348.199 H 22.1484 V 240.078 Z M 194.961,366.172 V 240.23 h -15.16 l -3.903,16.098 C 160.59,245.59 145.199,240.23 129.801,240.23 c -28.981,0 -43.4299,15.629 -43.4299,46.879 v 79.063 h 22.1799 v -79.371 c 0,-18.75 9.258,-28.129 27.82,-28.129 12.809,0 24.918,5.308 36.399,15.937 v 91.563 z" /><path
         id="path70"
         style="fill:#1072ba;fill-opacity:1;fill-rule:nonzero;stroke:none"
         d="m 230.898,240.23 v 125.942 h 15 l 3.75,-15.781 c 14.454,10.507 28.832,15.781 43.122,15.781 15.82,0 27.07,-5.742 33.75,-17.192 16.019,11.45 31.101,17.192 45.16,17.192 26.558,0 39.84,-15.942 39.84,-47.813 V 240.23 h -22.18 v 79.379 c 0,18.75 -7.93,28.121 -23.75,28.121 -11.879,0 -22.969,-5.429 -33.289,-16.25 v -91.25 h -22.18 v 78.911 c 0,19.058 -7.82,28.589 -23.441,28.589 -12.5,0 -23.711,-5.429 -33.59,-16.25 v -91.25 z" /><path
         id="path72"
         style="fill:#1072ba;fill-opacity:1;fill-rule:nonzero;stroke:none"
         d="m 469.57,393.828 h -22.1914 v 17.9727 H 469.57 Z m 0,-153.598 H 447.3786 V 366.171 H 469.57 Z" /><path
         id="path74"
         style="fill:#1072ba;fill-opacity:1;fill-rule:nonzero;stroke:none"
         d="m 589.73,344.922 c -7.621,1.879 -17,2.808 -28.128,2.808 -26.801,0 -40.153,-14.531 -40.153,-43.589 0,-29.801 12.653,-44.692 37.961,-44.692 11.57,0 21.641,2.11 30.32,6.41 z M 611.91,240.23 c 0,-30.39 -19.289,-45.621 -57.808,-45.621 -15.551,0 -29.332,2.032 -41.403,6.09 v 17.973 c 12.262,-4.063 26.129,-6.094 41.563,-6.094 23.629,0 35.468,9.223 35.468,27.652 v 5.942 c -9.378,-3.981 -19.531,-5.942 -30.468,-5.942 -39.813,0 -59.692,21.25 -59.692,63.75 0,41.45 20.981,62.192 62.969,62.192 17.07,0 33.512,-1.723 49.371,-5.152 z" /><path
         id="path76"
         style="fill:#1072ba;fill-opacity:1;fill-rule:nonzero;stroke:none"
         d="m 642.148,279.449 c 0,25.821 17.032,38.75 51.09,38.75 12.582,0 23.524,-0.777 32.813,-2.34 v 11.871 c 0,13.641 -11.321,20.469 -33.903,20.469 -12.929,0 -26.207,-1.988 -39.847,-5.929 v 17.96 c 13.64,3.95 26.918,5.942 39.847,5.942 37.5,0 56.25,-13.442 56.25,-40.313 V 240.23 h -11.41 l -8.75,8.911 c -11.047,-5.942 -23.976,-8.911 -38.75,-8.911 -31.558,0 -47.34,13.051 -47.34,39.219 z m 51.09,20.781 c -19.289,0 -28.898,-6.832 -28.898,-20.46 0,-14.379 8.359,-21.571 25.148,-21.571 15.391,0 27.582,3.281 36.563,9.852 v 29.84 c -8.75,1.558 -19.68,2.339 -32.813,2.339 z" /><path
         id="path78"
         style="fill:#1072ba;fill-opacity:1;fill-rule:nonzero;stroke:none"
         d="m 880.512,243.828 c -10.434,-2.418 -21.641,-3.598 -33.602,-3.598 -45.621,0 -68.43,21.801 -68.43,65.469 0,40.321 22.809,60.473 68.43,60.473 11.961,0 23.168,-1.211 33.602,-3.594 v -17.969 c -10.434,2.379 -20.864,3.59 -31.25,3.59 -32.422,0 -48.602,-14.179 -48.602,-42.5 0,-31.679 16.18,-47.5 48.602,-47.5 10.386,0 20.816,1.18 31.25,3.602 z" /><path
         id="path80"
         style="fill:#1072ba;fill-opacity:1;fill-rule:nonzero;stroke:none"
         d="m 929.488,393.828 h -22.1875 v 17.9727 h 22.1875 z m 0,-153.598 h -22.1875 v 125.941 h 22.1875 z" /><path
         id="path82"
         style="fill:#1072ba;fill-opacity:1;fill-rule:nonzero;stroke:none"
         d="m 1019.45,258.199 c 25.2,0 37.82,15.16 37.82,45.473 0,29.687 -12.62,44.527 -37.82,44.527 -25.231,0 -37.809,-14.84 -37.809,-44.527 0,-30.313 12.578,-45.473 37.809,-45.473 z m -60.001,45 c 0,41.961 20,62.973 60.001,62.973 40,0 60,-21.012 60,-62.973 0,-41.871 -20,-62.808 -60,-62.808 -39.919,0 -59.919,20.937 -60.001,62.808 z" /><path
         id="path84"
         style="fill:#1072ba;fill-opacity:1;fill-rule:nonzero;stroke:none"
         d="m 1109.41,240.23 v 125.942 h 15 l 4.07,-15.942 c 15.19,10.629 30.54,15.942 46.09,15.942 28.95,0 43.44,-15.621 43.44,-46.871 V 240.23 h -22.19 v 79.379 c 0,18.75 -9.34,28.121 -27.97,28.121 -12.73,0 -24.8,-5.308 -36.25,-15.929 V 240.23 Z" /><path
         id="path86"
         style="fill:#1072ba;fill-opacity:1;fill-rule:nonzero;stroke:none"
         d="m 1355.04,296.949 h -84.84 c 0,-25.859 16.25,-38.75 48.75,-38.75 11.01,0 22.1,1.18 33.28,3.602 v -17.973 c -11.18,-2.418 -24.65,-3.598 -40.47,-3.598 -42.5,0 -63.75,21.45 -63.75,64.379 0,41.012 20.08,61.563 60.31,61.563 38.52,0 54.1,-23.082 46.72,-69.223 z m -84.84,18.442 h 64.53 c 1.13,22.07 -8.87,33.129 -30,33.129 -21.57,0 -33.09,-11.059 -34.53,-33.129 z" /><path
         id="path88"
         style="fill:#1072ba;fill-opacity:1;fill-rule:nonzero;stroke:none"
         d="m 1389.8,246.172 v 19.219 c 14.07,-4.801 28.64,-7.192 43.75,-7.192 20.08,0 30.16,5.981 30.16,17.973 0,11.25 -6.64,16.879 -19.84,16.879 h -20.47 c -26.37,0 -39.53,12.379 -39.53,37.179 0,23.95 17.42,35.942 52.34,35.942 15.08,0 29.61,-1.992 43.59,-5.942 v -19.21 c -13.98,4.761 -28.51,7.179 -43.59,7.179 -20.94,0 -31.41,-6.008 -31.41,-17.969 0,-11.171 6.18,-16.71 18.6,-16.71 h 20.47 c 28.01,0 42.03,-12.469 42.03,-37.348 0,-23.981 -17.46,-35.942 -52.35,-35.942 -15.11,0 -29.68,1.961 -43.75,5.942 z" /><path
         id="path90"
         style="fill:#1072ba;fill-opacity:1;fill-rule:nonzero;stroke:none"
         d="m 1658.83,340.551 c -8.99,4.371 -19.22,6.558 -30.78,6.558 -25.32,0 -37.97,-13.519 -37.97,-40.468 0,-31.993 12.65,-47.969 37.97,-47.969 11.56,0 21.79,1.558 30.78,4.687 z m 22.19,-92.821 c -15.32,-5 -34.18,-7.5 -56.57,-7.5 -37.5,0 -56.25,21.801 -56.25,65.469 0,40.321 19.89,60.473 59.69,60.473 10.94,0 21.25,-1.992 30.94,-5.942 v 51.571 h 22.19 z" /><path
         id="path92"
         style="fill:#1072ba;fill-opacity:1;fill-rule:nonzero;stroke:none"
         d="m 1818.32,296.949 h -84.84 c 0,-25.859 16.25,-38.75 48.75,-38.75 11.01,0 22.11,1.18 33.28,3.602 v -17.973 c -11.17,-2.418 -24.65,-3.598 -40.47,-3.598 -42.5,0 -63.75,21.45 -63.75,64.379 0,41.012 20.08,61.563 60.31,61.563 38.52,0 54.1,-23.082 46.72,-69.223 z m -84.84,18.442 h 64.53 c 1.13,22.07 -8.87,33.129 -30,33.129 -21.56,0 -33.09,-11.059 -34.53,-33.129 z" /><path
         id="path94"
         style="fill:#1072ba;fill-opacity:1;fill-rule:nonzero;stroke:none"
         d="m 1853.09,246.172 v 19.219 c 14.06,-4.801 28.63,-7.192 43.75,-7.192 20.07,0 30.15,5.981 30.15,17.973 0,11.25 -6.64,16.879 -19.84,16.879 h -20.47 c -26.37,0 -39.53,12.379 -39.53,37.179 0,23.95 17.42,35.942 52.34,35.942 15.08,0 29.61,-1.992 43.6,-5.942 v -19.21 c -13.99,4.761 -28.52,7.179 -43.6,7.179 -20.94,0 -31.4,-6.008 -31.4,-17.969 0,-11.171 6.17,-16.71 18.59,-16.71 h 20.47 c 28.01,0 42.03,-12.469 42.03,-37.348 0,-23.981 -17.46,-35.942 -52.34,-35.942 -15.12,0 -29.69,1.961 -43.75,5.942 z" /><path
         id="path96"
         style="fill:#1072ba;fill-opacity:1;fill-rule:nonzero;stroke:none"
         d="m 2064.02,340.551 c -8.98,4.371 -19.22,6.558 -30.78,6.558 -25.31,0 -37.97,-13.519 -37.97,-40.468 0,-31.993 12.66,-47.969 37.97,-47.969 11.56,0 21.8,1.558 30.78,4.687 z m 22.19,-92.821 c -15.31,-5 -34.18,-7.5 -56.56,-7.5 -37.5,0 -56.25,21.801 -56.25,65.469 0,40.321 19.88,60.473 59.69,60.473 10.93,0 21.25,-1.992 30.93,-5.942 v 51.571 h 22.19 z" /><path
         id="path98"
         style="fill:#1072ba;fill-opacity:1;fill-rule:nonzero;stroke:none"
         d="m 2223.52,296.949 h -84.85 c 0,-25.859 16.25,-38.75 48.75,-38.75 11.02,0 22.11,1.18 33.28,3.602 v -17.973 c -11.17,-2.418 -24.65,-3.598 -40.47,-3.598 -42.5,0 -63.75,21.45 -63.75,64.379 0,41.012 20.08,61.563 60.32,61.563 38.51,0 54.1,-23.082 46.72,-69.223 z m -84.85,18.442 h 64.53 c 1.14,22.07 -8.86,33.129 -30,33.129 -21.56,0 -33.08,-11.059 -34.53,-33.129 z" /><path
         id="path100"
         style="fill:#1072ba;fill-opacity:1;fill-rule:nonzero;stroke:none"
         d="m 2310.43,240.23 v 17.969 c 63.52,43.75 95.31,78.52 95.31,104.379 0,21.641 -13.59,32.5 -40.78,32.5 -17.62,0 -34.18,-4.457 -49.69,-13.277 v 19.219 c 15.51,8 32.07,12.031 49.69,12.031 42.07,0 63.13,-16.84 63.13,-50.473 0,-29.609 -28.68,-64.379 -85.94,-104.379 h 85.94 V 240.23 Z" /><path
         id="path102"
         style="fill:#1072ba;fill-opacity:1;fill-rule:nonzero;stroke:none"
         d="m 2523.12,257.109 c 33.01,0 49.54,23.121 49.54,69.371 0,45.711 -16.53,68.598 -49.54,68.598 -33.86,0 -50.78,-22.887 -50.78,-68.598 0,-46.25 16.92,-69.371 50.78,-69.371 z m -74.06,68.75 c 0,58.121 24.69,87.192 74.06,87.192 48.52,0 72.82,-29.071 72.82,-87.192 0,-57.929 -24.3,-86.879 -72.82,-86.879 -49.37,0 -74.06,28.95 -74.06,86.879 z" /><path
         id="path104"
         style="fill:#1072ba;fill-opacity:1;fill-rule:nonzero;stroke:none"
         d="m 2635.16,240.23 v 148.911 h -17.97 v 10.781 l 40.15,11.879 V 240.23 Z" /><path
         id="path106"
         style="fill:#1072ba;fill-opacity:1;fill-rule:nonzero;stroke:none"
         d="m 2711.48,240.23 v 148.911 h -17.96 v 10.781 l 40.15,11.879 V 240.23 Z" /></g></g></svg>